<svg xmlns="http://www.w3.org/2000/svg" width="20" height="20" preserveAspectRatio="none" viewBox="0 0 18.488739013671875 20.41156005859375">
<path d="M 5.546620845794678 16.32925033569336 C 4.529739379882813 16.32925033569336 3.697747468948364 17.24777030944824 3.697747468948364 18.37040519714355 C 3.697747468948364 19.4930362701416 4.529739379882813 20.41156005859375 5.546620845794678 20.41156005859375 C 6.563500881195068 20.41156005859375 7.395494937896729 19.4930362701416 7.395494937896729 18.37040519714355 C 7.395494937896729 17.24777030944824 6.563500881195068 16.32925033569336 5.546620845794678 16.32925033569336 Z M 0 0 L 0 2.04115629196167 L 1.848873734474182 2.04115629196167 L 5.176846027374268 9.797549247741699 L 3.88263463973999 12.24693870544434 C 3.790190696716309 12.55311012268066 3.697747468948364 12.96134090423584 3.697747468948364 13.26751613616943 C 3.697747468948364 14.39015102386475 4.529739379882813 15.30867195129395 5.546620845794678 15.30867195129395 L 16.63986206054688 15.30867195129395 L 16.63986206054688 13.26751613616943 L 5.91639518737793 13.26751613616943 C 5.823951244354248 13.26751613616943 5.731506824493408 13.16545867919922 5.731506824493408 13.06340026855469 L 5.731506824493408 12.96130084991455 L 6.56350040435791 11.226318359375 L 13.40433311462402 11.226318359375 C 14.14388179779053 11.226318359375 14.69854354858398 10.81808757781982 14.97587490081787 10.2057409286499 L 18.30384826660156 3.572023153305054 C 18.48873329162598 3.367907762527466 18.48873329162598 3.265850067138672 18.48873329162598 3.061734676361084 C 18.48873329162598 2.449387311935425 18.11895751953125 2.04115629196167 17.56429862976074 2.04115629196167 L 3.88263463973999 2.04115629196167 L 3.050641059875488 0 L 0 0 Z M 14.79098987579346 16.32925033569336 C 13.77410697937012 16.32925033569336 12.94211387634277 17.24777030944824 12.94211387634277 18.37040519714355 C 12.94211387634277 19.4930362701416 13.77410697937012 20.41156005859375 14.79098987579346 20.41156005859375 C 15.8078670501709 20.41156005859375 16.63986206054688 19.4930362701416 16.63986206054688 18.37040519714355 C 16.63986206054688 17.24777030944824 15.8078670501709 16.32925033569336 14.79098987579346 16.32925033569336 Z" fill="#2d4057">
</path>
</svg>