<svg xmlns="http://www.w3.org/2000/svg" preserveAspectRatio="none" viewBox="12.50000286102295 13 9 8.998001098632812" class="path1157" width="9"  height="8.998001098632812" >
								<path d="M 21.16667175292969 16.99911308288574 L 17.33333778381348 16.99911308288574 L 17.33333778381348 13.33326053619385 C 17.33333778381348 13.14897060394287 17.18400192260742 13 17.00000381469727 13 C 16.81600189208984 13 16.66666793823242 13.14896869659424 16.66666793823242 13.33326053619385 L 16.66666793823242 16.99911308288574 L 12.83333683013916 16.99911308288574 C 12.64933586120605 16.99911308288574 12.50000286102295 17.14808082580566 12.50000286102295 17.33236694335938 C 12.50000286102295 17.51666450500488 12.64933586120605 17.6656322479248 12.83333683013916 17.6656322479248 L 16.66666793823242 17.6656322479248 L 16.66666793823242 21.66473770141602 C 16.66666793823242 21.84903526306152 16.81600189208984 21.99800109863281 17.00000381469727 21.99800109863281 C 17.18400192260742 21.99800109863281 17.33333778381348 21.84903526306152 17.33333778381348 21.66473770141602 L 17.33333778381348 17.6656322479248 L 21.16667175292969 17.6656322479248 C 21.35066795349121 17.6656322479248 21.50000381469727 17.51666450500488 21.50000381469727 17.33236694335938 C 21.50000381469727 17.14808082580566 21.35066795349121 16.99911308288574 21.16667175292969 16.99911308288574 Z" fill="#2d4057"></path>
								</svg>