<svg xmlns="http://www.w3.org/2000/svg" width="20" height="20" preserveAspectRatio="none" viewBox="-0.00019744038581848145 4.890204429626465 19.09759521484375 20.41156005859375">
<path d="M 18.85815238952637 14.84907245635986 C 19.2043399810791 14.42873573303223 19.17091178894043 13.78448390960693 18.78351020812988 13.41046905517578 L 10.24854850769043 5.1656494140625 C 9.86114501953125 4.791635513305664 9.240047454833984 4.799469947814941 8.860799789428711 5.183312892913818 L 0.2968245446681976 13.8500509262085 C -0.08242151141166687 14.23389339447021 -0.1010351851582527 14.87731838226318 0.2556129992008209 15.28659057617188 L 0.470323920249939 15.53346061706543 C 0.826536238193512 15.94273090362549 1.402315497398376 15.99152851104736 1.755539774894714 15.64211845397949 L 2.395564317703247 15.00934314727783 L 2.395564317703247 24.27325439453125 C 2.395564317703247 24.84162712097168 2.812722206115723 25.30175971984863 3.327181816101074 25.30175971984863 L 6.665443897247314 25.30175971984863 C 7.179903030395508 25.30175971984863 7.597060680389404 24.84162712097168 7.597060680389404 24.27325439453125 L 7.597060680389404 17.79225730895996 L 11.85505104064941 17.79225730895996 L 11.85505104064941 24.27325439453125 C 11.84764289855957 24.84121704101563 12.21574401855469 25.30135154724121 12.73020553588867 25.30135154724121 L 16.26792526245117 25.30135154724121 C 16.78238677978516 25.30135154724121 17.19954299926758 24.84121704101563 17.19954299926758 24.27284049987793 L 17.19954299926758 15.13978958129883 C 17.19954299926758 15.13978958129883 17.37634468078613 15.31078243255615 17.59441184997559 15.52239418029785 C 17.81211471557617 15.73359394073486 18.26936340332031 15.56424903869629 18.61554908752441 15.14349842071533 L 18.85815238952637 14.84907245635986 Z" fill="#2d4057">
</path>
</svg>