<svg xmlns="http://www.w3.org/2000/svg" width="20" height="20" preserveAspectRatio="none" viewBox="0 8 19.17352294921875 20.41156005859375" class="path1531">
<path d="M 11.95828533172607 22.3338451385498 C 11.48515319824219 22.250732421875 11.47436618804932 20.814453125 11.47436618804932 20.814453125 C 11.47436618804932 20.814453125 12.8646183013916 19.29502296447754 13.16762828826904 17.25183296203613 C 13.98271656036377 17.25183296203613 14.48619270324707 15.07965183258057 13.67093372344971 14.31540012359619 C 13.70508766174316 13.51089191436768 14.71867275238037 8 9.586760520935059 8 C 4.454804420471191 8 5.46851921081543 13.51089191436768 5.502457618713379 14.31540012359619 C 4.687283515930176 15.07965183258057 5.190674304962158 17.25183296203613 6.005805492401123 17.25183296203613 C 6.308773040771484 19.29502296447754 7.69906759262085 20.814453125 7.69906759262085 20.814453125 C 7.69906759262085 20.814453125 7.688282489776611 22.250732421875 7.215149402618408 22.3338451385498 C 5.69111156463623 22.6015567779541 0 25.37280654907227 0 28.41158294677734 L 9.586760520935059 28.41158294677734 L 19.17352104187012 28.41158294677734 C 19.17352104187012 25.37280654907227 13.48236560821533 22.6015567779541 11.95828533172607 22.3338451385498 Z" fill="#2d4057">
</path>
</svg>